<svg id="Layer_1" data-name="Layer 1" xmlns="http://www.w3.org/2000/svg" viewBox="0 0 312 34.49">
  <title>softline</title>
  <path d="M1115.5,540.5l-32.74,1.14c-5.46.15-10.92.42-16.38.47l-16.37.17-16.38.19c-5.46.06-10.92,0-16.37,0H983.88l-.27-.55-5-10,1.66.19-7.14,8.5-.32.37h-.48l-17.86-.5,1-.85-2,13-.74,4.8-1.22-4.7-7-27,1.82.27-9.14,15-.29.49h-.57l-33.21-.35c-11.07-.14-22.15-.19-33.22-.25l-16.6-.08c-5.54,0-11.07-.25-16.61-.37l-33.21-.93,33.22-.56c5.54-.05,11.07-.23,16.61-.17l16.61.11c11.07.06,22.14.11,33.21.25l33.22.35-.86.48,9.14-15,1.23-2,.59,2.29,7,27-2,.1,2-13,.14-.87.88,0,17.86.5-.8.36,7.14-8.5,1-1.17.68,1.36,5,10-.89-.55h32.75c5.46,0,10.91,0,16.37,0l16.37-.19,16.38-.22c5.46-.08,10.91.06,16.37.08Z" transform="translate(-803.5 -522.96)"/>
</svg>
