<svg id="Layer_1" data-name="Layer 1" xmlns="http://www.w3.org/2000/svg" viewBox="0 0 306 72.53">
  <title>strongline</title>
  <path d="M1138.5,280.5c-17.33.39-34.67.63-52,.94-4.33.09-8.67.09-13,.06H1034l-.3-.39-7-9h1.59l-6,7.9-.3.39h-.49l-14,.1.93-.65-6,16-1.57,4.18-.37-4.45-5-61,2,.12-11,53-.61,2.94-1.27-2.71-4-8.46.9.57H971.38l-.19-.76-3.66-14.54,1.9.11-5.49,14.5-.25.65H930.38c-10.88,0-21.75,0-32.63,0-5.43.1-10.87,0-16.31,0l-16.31-.16-32.63-.37,32.62-.83,16.31-.39c5.44-.14,10.88-.27,16.32-.24,10.87-.08,21.75,0,32.62,0H963l-.93.65,5.49-14.5,1.13-3,.78,3.09,3.66,14.54-1-.76h10l.27.57,4,8.46-1.88.23,11-53,1.41-6.79.57,6.91,5,61-1.94-.27,6-16,.25-.65h.68l14-.1-.79.39,6-7.9.79-1,.8,1,7,9-.79-.39h39c4.33,0,8.67,0,13,.06C1103.83,279.87,1121.17,280.11,1138.5,280.5Z" transform="translate(-832.5 -227.51)"/>
</svg>
